<svg xmlns="http://www.w3.org/2000/svg" xmlns:xlink="http://www.w3.org/1999/xlink" width="40" zoomAndPan="magnify" viewBox="0 0 30 30.000001" height="40" preserveAspectRatio="xMidYMid meet" version="1.0"><defs><clipPath id="8ed28fd3b1"><path d="M 2.070312 1.6875 L 28 1.6875 L 28 27 L 2.070312 27 Z M 2.070312 1.6875 " clip-rule="nonzero"/></clipPath></defs><g clip-path="url(#8ed28fd3b1)"><path fill="#ffffff" d="M 23.503906 23.164062 L 19.777344 23.164062 L 19.777344 17.320312 C 19.777344 15.929688 19.75 14.132812 17.835938 14.132812 C 15.925781 14.132812 15.597656 15.652344 15.597656 17.21875 L 15.597656 23.164062 L 11.871094 23.164062 L 11.871094 11.148438 L 15.453125 11.148438 L 15.453125 12.789062 L 15.5 12.789062 C 16.230469 11.539062 17.585938 10.796875 19.03125 10.847656 C 22.808594 10.847656 23.503906 13.335938 23.503906 16.570312 Z M 7.664062 9.503906 C 6.472656 9.503906 5.503906 8.535156 5.503906 7.339844 C 5.503906 6.144531 6.46875 5.175781 7.664062 5.175781 C 8.859375 5.175781 9.828125 6.144531 9.828125 7.339844 C 9.828125 8.535156 8.859375 9.503906 7.664062 9.503906 M 9.53125 23.164062 L 5.800781 23.164062 L 5.800781 11.148438 L 9.53125 11.148438 Z M 25.359375 1.707031 L 3.925781 1.707031 C 2.914062 1.699219 2.082031 2.511719 2.070312 3.523438 L 2.070312 25.074219 C 2.082031 26.089844 2.914062 26.902344 3.925781 26.890625 L 25.359375 26.890625 C 26.375 26.902344 27.210938 26.089844 27.222656 25.074219 L 27.222656 3.523438 C 27.210938 2.507812 26.375 1.695312 25.359375 1.707031 " fill-opacity="1" fill-rule="nonzero"/></g></svg>