<svg xmlns="http://www.w3.org/2000/svg" xmlns:xlink="http://www.w3.org/1999/xlink" width="40" zoomAndPan="magnify" viewBox="0 0 30 30.000001" height="40" preserveAspectRatio="xMidYMid meet" version="1.0"><defs><clipPath id="d5c76624b5"><path d="M 1.390625 0.90625 L 28.972656 0.90625 L 28.972656 28.488281 L 1.390625 28.488281 Z M 1.390625 0.90625 " clip-rule="nonzero"/></clipPath></defs><g clip-path="url(#d5c76624b5)"><path fill="#ffffff" d="M 28.613281 14.519531 C 28.613281 15.414062 28.527344 16.296875 28.351562 17.175781 C 28.179688 18.050781 27.917969 18.902344 27.578125 19.726562 C 27.234375 20.554688 26.816406 21.335938 26.320312 22.082031 C 25.824219 22.824219 25.257812 23.511719 24.628906 24.144531 C 23.996094 24.773438 23.308594 25.339844 22.5625 25.835938 C 21.820312 26.332031 21.035156 26.75 20.210938 27.09375 C 19.386719 27.4375 18.535156 27.695312 17.65625 27.867188 C 16.78125 28.042969 15.894531 28.128906 15.003906 28.128906 C 14.109375 28.128906 13.222656 28.042969 12.347656 27.867188 C 11.46875 27.695312 10.621094 27.4375 9.792969 27.09375 C 8.96875 26.75 8.183594 26.332031 7.441406 25.835938 C 6.699219 25.339844 6.007812 24.773438 5.378906 24.144531 C 4.746094 23.511719 4.179688 22.824219 3.683594 22.082031 C 3.1875 21.335938 2.769531 20.554688 2.425781 19.726562 C 2.085938 18.902344 1.828125 18.050781 1.652344 17.175781 C 1.476562 16.296875 1.390625 15.414062 1.390625 14.519531 C 1.390625 13.625 1.476562 12.738281 1.652344 11.863281 C 1.828125 10.988281 2.085938 10.136719 2.425781 9.308594 C 2.769531 8.484375 3.1875 7.699219 3.683594 6.957031 C 4.179688 6.214844 4.746094 5.527344 5.378906 4.894531 C 6.007812 4.261719 6.699219 3.699219 7.441406 3.203125 C 8.183594 2.703125 8.96875 2.285156 9.792969 1.941406 C 10.621094 1.601562 11.46875 1.34375 12.347656 1.167969 C 13.222656 0.996094 14.109375 0.90625 15.003906 0.90625 C 15.894531 0.90625 16.78125 0.996094 17.65625 1.167969 C 18.535156 1.34375 19.386719 1.601562 20.210938 1.941406 C 21.035156 2.285156 21.820312 2.703125 22.5625 3.203125 C 23.308594 3.699219 23.996094 4.261719 24.628906 4.894531 C 25.257812 5.527344 25.824219 6.214844 26.320312 6.957031 C 26.816406 7.699219 27.234375 8.484375 27.578125 9.308594 C 27.917969 10.136719 28.179688 10.988281 28.351562 11.863281 C 28.527344 12.738281 28.613281 13.625 28.613281 14.519531 Z M 28.613281 14.519531 " fill-opacity="1" fill-rule="nonzero"/></g><path fill="#25f4ee" d="M 13.195312 12.574219 L 13.195312 11.835938 C 12.949219 11.800781 12.695312 11.78125 12.441406 11.78125 C 9.351562 11.78125 6.835938 14.292969 6.835938 17.382812 C 6.835938 19.28125 7.785156 20.957031 9.230469 21.972656 C 8.296875 20.972656 7.742188 19.628906 7.742188 18.15625 C 7.742188 15.109375 10.167969 12.644531 13.195312 12.574219 Z M 13.195312 12.574219 " fill-opacity="1" fill-rule="nonzero"/><path fill="#25f4ee" d="M 13.328125 20.730469 C 14.707031 20.730469 15.847656 19.617188 15.898438 18.253906 L 15.910156 6.066406 L 18.121094 6.066406 C 18.121094 6.066406 18.117188 6.050781 18.117188 6.050781 C 18.070312 5.800781 18.042969 5.542969 18.042969 5.277344 L 15 5.277344 L 14.996094 17.480469 C 14.945312 18.847656 13.820312 19.945312 12.441406 19.945312 C 12.011719 19.945312 11.609375 19.835938 11.253906 19.648438 C 11.71875 20.292969 12.472656 20.734375 13.328125 20.734375 Z M 13.328125 20.730469 " fill-opacity="1" fill-rule="nonzero"/><path fill="#25f4ee" d="M 22.28125 10.226562 L 22.28125 9.511719 C 21.429688 9.511719 20.640625 9.257812 19.976562 8.824219 C 20.566406 9.503906 21.371094 10.03125 22.28125 10.226562 Z M 22.28125 10.226562 " fill-opacity="1" fill-rule="nonzero"/><path fill="#fe2c55" d="M 19.972656 8.824219 C 19.328125 8.082031 18.933594 7.109375 18.933594 6.046875 L 18.105469 6.046875 C 18.320312 7.207031 19.019531 8.203125 19.972656 8.824219 Z M 19.972656 8.824219 " fill-opacity="1" fill-rule="nonzero"/><path fill="#fe2c55" d="M 12.441406 14.800781 C 11.027344 14.800781 9.863281 15.972656 9.863281 17.382812 C 9.863281 18.367188 10.4375 19.21875 11.253906 19.648438 C 10.949219 19.226562 10.765625 18.714844 10.765625 18.15625 C 10.765625 16.746094 11.914062 15.597656 13.328125 15.597656 C 13.589844 15.597656 13.84375 15.640625 14.082031 15.714844 L 14.082031 12.605469 C 13.835938 12.574219 13.582031 12.550781 13.328125 12.550781 C 13.28125 12.550781 13.238281 12.554688 13.195312 12.554688 L 13.183594 12.554688 C 13.183594 12.554688 13.175781 14.910156 13.175781 14.910156 C 12.9375 14.835938 12.703125 14.800781 12.441406 14.800781 Z M 12.441406 14.800781 " fill-opacity="1" fill-rule="nonzero"/><path fill="#fe2c55" d="M 22.28125 10.191406 L 22.265625 10.1875 L 22.265625 12.539062 C 20.6875 12.539062 19.21875 12.019531 18.027344 11.164062 L 18.027344 17.382812 C 18.027344 20.472656 15.53125 22.972656 12.441406 22.972656 C 11.246094 22.972656 10.140625 22.609375 9.226562 21.972656 C 10.25 23.070312 11.710938 23.757812 13.328125 23.757812 C 16.417969 23.757812 18.929688 21.246094 18.929688 18.15625 L 18.929688 11.96875 C 20.125 12.824219 21.589844 13.328125 23.167969 13.328125 L 23.167969 10.285156 C 22.863281 10.285156 22.566406 10.253906 22.28125 10.191406 Z M 22.28125 10.191406 " fill-opacity="1" fill-rule="nonzero"/><path fill="#030901" d="M 18.042969 17.382812 L 18.042969 11.195312 C 19.238281 12.050781 20.703125 12.558594 22.28125 12.558594 L 22.28125 10.191406 C 21.367188 9.996094 20.566406 9.503906 19.972656 8.824219 C 19.019531 8.203125 18.332031 7.207031 18.117188 6.046875 L 15.886719 6.046875 L 15.882812 18.25 C 15.832031 19.617188 14.707031 20.714844 13.324219 20.714844 C 12.472656 20.714844 11.714844 20.292969 11.25 19.648438 C 10.4375 19.21875 9.878906 18.367188 9.878906 17.382812 C 9.878906 15.96875 11.027344 14.820312 12.4375 14.820312 C 12.703125 14.820312 12.953125 14.867188 13.195312 14.941406 L 13.195312 12.554688 C 10.164062 12.625 7.722656 15.109375 7.722656 18.15625 C 7.722656 19.628906 8.292969 20.96875 9.226562 21.972656 C 10.136719 22.613281 11.242188 22.988281 12.4375 22.988281 C 15.53125 22.988281 18.042969 20.472656 18.042969 17.382812 Z M 18.042969 17.382812 " fill-opacity="1" fill-rule="nonzero"/></svg>