<svg xmlns="http://www.w3.org/2000/svg" xmlns:xlink="http://www.w3.org/1999/xlink" width="80" zoomAndPan="magnify" viewBox="0 0 60 60" height="80" preserveAspectRatio="xMidYMid meet" version="1.0"><defs><clipPath id="c4807ee4f9"><path d="M 2.136719 2.136719 L 57.636719 2.136719 L 57.636719 57.636719 L 2.136719 57.636719 Z M 2.136719 2.136719 " clip-rule="nonzero"/></clipPath></defs><g clip-path="url(#c4807ee4f9)"><path fill="#ffffff" d="M 57.871094 30.003906 C 57.871094 30.917969 57.824219 31.828125 57.734375 32.734375 C 57.644531 33.644531 57.511719 34.546875 57.335938 35.441406 C 57.15625 36.335938 56.933594 37.21875 56.671875 38.09375 C 56.40625 38.964844 56.097656 39.824219 55.75 40.667969 C 55.398438 41.511719 55.011719 42.335938 54.578125 43.140625 C 54.148438 43.945312 53.679688 44.726562 53.171875 45.484375 C 52.667969 46.246094 52.125 46.976562 51.542969 47.683594 C 50.964844 48.386719 50.355469 49.0625 49.707031 49.707031 C 49.0625 50.355469 48.386719 50.964844 47.683594 51.542969 C 46.976562 52.125 46.246094 52.667969 45.484375 53.171875 C 44.726562 53.679688 43.945312 54.148438 43.140625 54.578125 C 42.335938 55.011719 41.511719 55.398438 40.667969 55.75 C 39.824219 56.097656 38.964844 56.40625 38.09375 56.671875 C 37.21875 56.933594 36.335938 57.15625 35.441406 57.335938 C 34.546875 57.511719 33.644531 57.644531 32.734375 57.734375 C 31.828125 57.824219 30.917969 57.871094 30.003906 57.871094 C 29.089844 57.871094 28.179688 57.824219 27.273438 57.734375 C 26.363281 57.644531 25.460938 57.511719 24.566406 57.335938 C 23.671875 57.15625 22.789062 56.933594 21.914062 56.671875 C 21.042969 56.40625 20.183594 56.097656 19.339844 55.75 C 18.496094 55.398438 17.671875 55.011719 16.867188 54.578125 C 16.0625 54.148438 15.28125 53.679688 14.523438 53.171875 C 13.761719 52.667969 13.03125 52.125 12.324219 51.542969 C 11.621094 50.964844 10.945312 50.355469 10.300781 49.707031 C 9.652344 49.0625 9.042969 48.386719 8.460938 47.683594 C 7.882812 46.976562 7.339844 46.246094 6.832031 45.484375 C 6.328125 44.726562 5.859375 43.945312 5.429688 43.140625 C 4.996094 42.335938 4.609375 41.511719 4.257812 40.667969 C 3.910156 39.824219 3.601562 38.964844 3.335938 38.09375 C 3.074219 37.21875 2.851562 36.335938 2.671875 35.441406 C 2.496094 34.546875 2.359375 33.644531 2.273438 32.734375 C 2.183594 31.828125 2.136719 30.917969 2.136719 30.003906 C 2.136719 29.089844 2.183594 28.179688 2.273438 27.273438 C 2.359375 26.363281 2.496094 25.460938 2.671875 24.566406 C 2.851562 23.671875 3.074219 22.789062 3.335938 21.914062 C 3.601562 21.042969 3.910156 20.183594 4.257812 19.339844 C 4.609375 18.496094 4.996094 17.671875 5.429688 16.867188 C 5.859375 16.0625 6.328125 15.28125 6.832031 14.523438 C 7.339844 13.761719 7.882812 13.03125 8.460938 12.324219 C 9.042969 11.621094 9.652344 10.945312 10.300781 10.300781 C 10.945312 9.652344 11.621094 9.042969 12.324219 8.460938 C 13.03125 7.882812 13.761719 7.339844 14.523438 6.832031 C 15.28125 6.328125 16.0625 5.859375 16.867188 5.429688 C 17.671875 4.996094 18.496094 4.609375 19.339844 4.257812 C 20.183594 3.910156 21.042969 3.601562 21.914062 3.335938 C 22.789062 3.074219 23.671875 2.851562 24.566406 2.671875 C 25.460938 2.496094 26.363281 2.359375 27.273438 2.273438 C 28.179688 2.183594 29.089844 2.136719 30.003906 2.136719 C 30.917969 2.136719 31.828125 2.183594 32.734375 2.273438 C 33.644531 2.359375 34.546875 2.496094 35.441406 2.671875 C 36.335938 2.851562 37.21875 3.074219 38.09375 3.335938 C 38.964844 3.601562 39.824219 3.910156 40.667969 4.257812 C 41.511719 4.609375 42.335938 4.996094 43.140625 5.429688 C 43.945312 5.859375 44.726562 6.328125 45.484375 6.832031 C 46.246094 7.339844 46.976562 7.882812 47.683594 8.460938 C 48.386719 9.042969 49.0625 9.652344 49.707031 10.300781 C 50.355469 10.945312 50.964844 11.621094 51.542969 12.324219 C 52.125 13.03125 52.667969 13.761719 53.171875 14.523438 C 53.679688 15.28125 54.148438 16.0625 54.578125 16.867188 C 55.011719 17.671875 55.398438 18.496094 55.75 19.339844 C 56.097656 20.183594 56.40625 21.042969 56.671875 21.914062 C 56.933594 22.789062 57.15625 23.671875 57.335938 24.566406 C 57.511719 25.460938 57.644531 26.363281 57.734375 27.273438 C 57.824219 28.179688 57.871094 29.089844 57.871094 30.003906 Z M 57.871094 30.003906 " fill-opacity="1" fill-rule="nonzero"/></g><path fill="#ffffff" d="M 26.304688 26.019531 L 26.304688 24.507812 C 25.796875 24.4375 25.28125 24.398438 24.757812 24.398438 C 18.429688 24.398438 13.285156 29.542969 13.285156 35.871094 C 13.285156 39.753906 15.222656 43.1875 18.183594 45.265625 C 16.273438 43.214844 15.140625 40.46875 15.140625 37.453125 C 15.140625 31.214844 20.105469 26.164062 26.304688 26.019531 Z M 26.304688 26.019531 " fill-opacity="1" fill-rule="nonzero"/><path fill="#ffffff" d="M 26.574219 42.722656 C 29.398438 42.722656 31.734375 40.445312 31.835938 37.648438 L 31.863281 12.699219 L 36.386719 12.699219 C 36.386719 12.699219 36.378906 12.664062 36.378906 12.664062 C 36.285156 12.152344 36.230469 11.625 36.230469 11.085938 L 30 11.085938 L 29.988281 36.070312 C 29.886719 38.867188 27.582031 41.109375 24.757812 41.109375 C 23.878906 41.109375 23.054688 40.890625 22.328125 40.511719 C 23.28125 41.828125 24.828125 42.726562 26.578125 42.726562 Z M 26.574219 42.722656 " fill-opacity="1" fill-rule="nonzero"/><path fill="#ffffff" d="M 44.90625 21.21875 L 44.90625 19.753906 C 43.164062 19.753906 41.542969 19.234375 40.183594 18.347656 C 41.394531 19.738281 43.039062 20.816406 44.90625 21.214844 Z M 44.90625 21.21875 " fill-opacity="1" fill-rule="nonzero"/><path fill="#030901" d="M 40.183594 18.347656 C 38.855469 16.824219 38.050781 14.839844 38.050781 12.664062 L 36.351562 12.664062 C 36.792969 15.039062 38.230469 17.078125 40.183594 18.347656 Z M 40.183594 18.347656 " fill-opacity="1" fill-rule="nonzero"/><path fill="#030901" d="M 24.757812 30.582031 C 21.867188 30.582031 19.484375 32.976562 19.484375 35.867188 C 19.484375 37.878906 20.65625 39.628906 22.324219 40.507812 C 21.703125 39.644531 21.332031 38.59375 21.332031 37.453125 C 21.332031 34.5625 23.683594 32.210938 26.574219 32.210938 C 27.113281 32.210938 27.632812 32.300781 28.121094 32.453125 L 28.121094 26.089844 C 27.613281 26.019531 27.097656 25.976562 26.574219 25.976562 C 26.484375 25.976562 26.394531 25.984375 26.304688 25.984375 L 26.28125 25.984375 C 26.28125 25.984375 26.261719 30.804688 26.261719 30.804688 C 25.773438 30.648438 25.296875 30.582031 24.757812 30.582031 Z M 24.757812 30.582031 " fill-opacity="1" fill-rule="nonzero"/><path fill="#030901" d="M 44.90625 21.144531 L 44.878906 21.136719 L 44.878906 25.949219 C 41.644531 25.949219 38.640625 24.886719 36.195312 23.132812 L 36.195312 35.867188 C 36.195312 42.195312 31.085938 47.308594 24.757812 47.308594 C 22.3125 47.308594 20.046875 46.570312 18.179688 45.261719 C 20.277344 47.511719 23.261719 48.921875 26.574219 48.921875 C 32.902344 48.921875 38.046875 43.777344 38.046875 37.449219 L 38.046875 24.78125 C 40.492188 26.535156 43.488281 27.570312 46.71875 27.570312 L 46.71875 21.335938 C 46.097656 21.335938 45.492188 21.269531 44.90625 21.144531 Z M 44.90625 21.144531 " fill-opacity="1" fill-rule="nonzero"/><path fill="#000000" d="M 36.230469 35.867188 L 36.230469 23.199219 C 38.675781 24.953125 41.671875 25.988281 44.90625 25.988281 L 44.90625 21.144531 C 43.035156 20.742188 41.394531 19.738281 40.179688 18.347656 C 38.230469 17.074219 36.816406 15.039062 36.378906 12.664062 L 31.8125 12.664062 L 31.800781 37.648438 C 31.699219 40.445312 29.394531 42.691406 26.570312 42.691406 C 24.824219 42.691406 23.277344 41.828125 22.324219 40.503906 C 20.65625 39.625 19.515625 37.878906 19.515625 35.867188 C 19.515625 32.976562 21.867188 30.625 24.753906 30.625 C 25.296875 30.625 25.8125 30.714844 26.300781 30.867188 L 26.300781 25.980469 C 20.097656 26.125 15.097656 31.210938 15.097656 37.449219 C 15.097656 40.464844 16.269531 43.210938 18.179688 45.261719 C 20.042969 46.570312 22.308594 47.339844 24.753906 47.339844 C 31.082031 47.339844 36.230469 42.195312 36.230469 35.867188 Z M 36.230469 35.867188 " fill-opacity="1" fill-rule="nonzero"/></svg>